<svg width="20" height="17" viewBox="0 0 20 17" fill="none" xmlns="http://www.w3.org/2000/svg">
<path d="M12.5237 1.63144C11.7297 1.41838 10.853 1.29624 9.88802 1.29624C6.62882 1.29624 4.294 2.68938 2.7875 4.27385C2.03979 5.06027 1.49324 5.89561 1.13006 6.63808C0.783218 7.34712 0.554688 8.07202 0.554688 8.62957C0.554688 9.18712 0.783218 9.91201 1.13006 10.6211C1.36028 11.0917 1.66419 11.5997 2.04632 12.1089L3.47857 10.6766C3.25301 10.3519 3.06965 10.0346 2.92663 9.74224C2.63144 9.13879 2.55469 8.73869 2.55469 8.62957C2.55469 8.52045 2.63144 8.12035 2.92663 7.51689C3.20547 6.94686 3.63769 6.2822 4.23693 5.65195C5.42434 4.40309 7.25619 3.29624 9.88802 3.29624C10.2088 3.29624 10.5164 3.31267 10.8114 3.3438L12.5237 1.63144Z" fill="white" fill-opacity="0.5"/>
<path fill-rule="evenodd" clip-rule="evenodd" d="M2.2202 14.7633C1.83995 15.1546 1.84336 15.78 2.23044 16.1671C2.62097 16.5576 3.25413 16.5576 3.64465 16.1671L5.05973 14.752C6.35975 15.4767 7.96257 15.9629 9.88802 15.9629C13.1552 15.9629 15.4103 14.5627 16.8743 12.9738C18.3115 11.4139 18.9914 9.6723 19.1915 8.8721C19.2313 8.71286 19.2313 8.54627 19.1915 8.38703C18.9914 7.58684 18.3115 5.84522 16.8743 4.2853C16.6643 4.05742 16.438 3.83342 16.1949 3.61687L17.4254 2.38631C17.816 1.99578 17.816 1.36262 17.4254 0.972093C17.0383 0.584956 16.4127 0.581597 16.0215 0.962019C16.0181 0.965496 16.0147 0.968955 16.0112 0.972394L2.23043 14.7532C2.22704 14.7566 2.22363 14.7599 2.2202 14.7633ZM9.88802 13.9629C8.58415 13.9629 7.47663 13.6912 6.54654 13.2652L8.02432 11.7874C8.57022 12.1102 9.20748 12.296 9.88804 12.296C11.9131 12.296 13.5547 10.6544 13.5547 8.62931C13.5547 7.94899 13.3689 7.31158 13.0462 6.7656L14.7779 5.03386C15.0039 5.22908 15.212 5.43278 15.4034 5.64051C16.4285 6.75312 16.9712 7.98148 17.1808 8.62957C16.9712 9.27766 16.4285 10.506 15.4034 11.6186C14.2568 12.8631 12.5119 13.9629 9.88802 13.9629ZM9.88804 10.296C9.77222 10.296 9.65916 10.2842 9.54999 10.2618L11.5205 8.29123C11.543 8.40038 11.5547 8.51344 11.5547 8.62931C11.5547 9.54978 10.8085 10.296 9.88804 10.296Z" fill="white" fill-opacity="0.5"/>
</svg>
