<svg width="20" height="20" viewBox="0 0 20 20" fill="none" xmlns="http://www.w3.org/2000/svg">
<g clip-path="url(#clip0_1_5162)">
<path d="M10.0001 1C12.3359 3.06658 15.3846 4.14257 18.5001 4C18.9537 5.54302 19.0925 7.16147 18.9082 8.75918C18.7239 10.3569 18.2204 11.9013 17.4275 13.3005C16.6346 14.6998 15.5685 15.9254 14.2925 16.9045C13.0166 17.8836 11.5569 18.5962 10.0001 19C8.44329 18.5962 6.98356 17.8836 5.70762 16.9045C4.43169 15.9254 3.36559 14.6998 2.57267 13.3005C1.77976 11.9013 1.27621 10.3569 1.09195 8.75918C0.907695 7.16147 1.04649 5.54302 1.50008 4C4.61561 4.14257 7.66425 3.06658 10.0001 1Z" stroke="#3680FF" stroke-width="2" stroke-linecap="round" stroke-linejoin="round"/>
<path d="M7 10L9 12L13 8" stroke="#3680FF" stroke-width="2" stroke-linecap="round" stroke-linejoin="round"/>
</g>
<defs>
<clipPath id="clip0_1_5162">
<rect width="20" height="20" fill="white"/>
</clipPath>
</defs>
</svg>
