<svg width="20" height="20" viewBox="0 0 20 20" fill="none" xmlns="http://www.w3.org/2000/svg">
<g clip-path="url(#clip0_1_5152)">
<path d="M17.5003 11.5717L10.0003 18.9997L2.5003 11.5717C2.00561 11.0903 1.61594 10.5117 1.35585 9.87232C1.09575 9.23295 0.970863 8.54664 0.989039 7.85662C1.00721 7.1666 1.16806 6.48782 1.46146 5.86303C1.75485 5.23823 2.17444 4.68094 2.69379 4.22627C3.21314 3.77159 3.82101 3.42938 4.47911 3.22117C5.13722 3.01296 5.83131 2.94327 6.51767 3.01649C7.20403 3.08971 7.8678 3.30425 8.46718 3.64659C9.06655 3.98894 9.58855 4.45169 10.0003 5.00569C10.4138 4.45571 10.9364 3.99701 11.5354 3.65829C12.1344 3.31958 12.7968 3.10814 13.4812 3.03721C14.1657 2.96628 14.8574 3.03739 15.5131 3.24608C16.1688 3.45477 16.7743 3.79656 17.2919 4.25005C17.8094 4.70354 18.2277 5.25897 18.5207 5.88158C18.8137 6.50419 18.975 7.18057 18.9946 7.8684C19.0142 8.55622 18.8916 9.24068 18.6344 9.87894C18.3773 10.5172 17.9912 11.0955 17.5003 11.5777" stroke="#3680FF" stroke-width="2" stroke-linecap="round" stroke-linejoin="round"/>
<path d="M9.99997 5L6.70697 8.293C6.5195 8.48053 6.41418 8.73484 6.41418 9C6.41418 9.26516 6.5195 9.51947 6.70697 9.707L7.24997 10.25C7.93997 10.94 9.05997 10.94 9.74997 10.25L10.75 9.25C11.3467 8.65327 12.1561 8.31803 13 8.31803C13.8439 8.31803 14.6532 8.65327 15.25 9.25L17.5 11.5" stroke="#3680FF" stroke-width="2" stroke-linecap="round" stroke-linejoin="round"/>
<path d="M10.5 14.5L12.5 16.5" stroke="#3680FF" stroke-width="2" stroke-linecap="round" stroke-linejoin="round"/>
<path d="M13 12L15 14" stroke="#3680FF" stroke-width="2" stroke-linecap="round" stroke-linejoin="round"/>
</g>
<defs>
<clipPath id="clip0_1_5152">
<rect width="20" height="20" fill="white"/>
</clipPath>
</defs>
</svg>
