<svg width="20" height="21" viewBox="0 0 20 21" fill="none" xmlns="http://www.w3.org/2000/svg">
<path fill-rule="evenodd" clip-rule="evenodd" d="M3 2.5C2.20435 2.5 1.44129 2.81607 0.87868 3.37868C0.31607 3.94129 0 4.70435 0 5.5V11.5C0 12.2956 0.31607 13.0587 0.87868 13.6213C1.44129 14.1839 2.20435 14.5 3 14.5H4V15.5C4 16.2956 4.31607 17.0587 4.87868 17.6213C5.44129 18.1839 6.20435 18.5 7 18.5H17C17.7957 18.5 18.5587 18.1839 19.1213 17.6213C19.6839 17.0587 20 16.2957 20 15.5V9.5C20 8.70435 19.6839 7.94129 19.1213 7.37868C18.5587 6.81607 17.7957 6.5 17 6.5H16V5.5C16 4.70435 15.6839 3.94129 15.1213 3.37868C14.5587 2.81607 13.7956 2.5 13 2.5H3ZM14 6.5V5.5C14 5.23478 13.8946 4.98043 13.7071 4.79289C13.5196 4.60536 13.2652 4.5 13 4.5H3C2.73478 4.5 2.48043 4.60536 2.29289 4.79289C2.10536 4.98043 2 5.23478 2 5.5V11.5C2 11.7652 2.10536 12.0196 2.29289 12.2071C2.48043 12.3946 2.73478 12.5 3 12.5H4V9.5C4 8.70435 4.31607 7.94129 4.87868 7.37868C5.44129 6.81607 6.20435 6.5 7 6.5H14ZM6 13.5V9.5C6 9.23478 6.10536 8.98043 6.29289 8.79289C6.48043 8.60536 6.73478 8.5 7 8.5H15H17C17.2652 8.5 17.5196 8.60536 17.7071 8.79289C17.8946 8.98043 18 9.23478 18 9.5V15.5C18 15.7652 17.8946 16.0196 17.7071 16.2071C17.5196 16.3946 17.2652 16.5 17 16.5H7C6.73478 16.5 6.48043 16.3946 6.29289 16.2071C6.10536 16.0196 6 15.7652 6 15.5V13.5ZM9.87868 10.3787C10.4413 9.81607 11.2043 9.5 12 9.5C12.7957 9.5 13.5587 9.81607 14.1213 10.3787C14.6839 10.9413 15 11.7043 15 12.5C15 13.2957 14.6839 14.0587 14.1213 14.6213C13.5587 15.1839 12.7957 15.5 12 15.5C11.2043 15.5 10.4413 15.1839 9.87868 14.6213C9.31607 14.0587 9 13.2957 9 12.5C9 11.7043 9.31607 10.9413 9.87868 10.3787ZM12 11.5C11.7348 11.5 11.4804 11.6054 11.2929 11.7929C11.1054 11.9804 11 12.2348 11 12.5C11 12.7652 11.1054 13.0196 11.2929 13.2071C11.4804 13.3946 11.7348 13.5 12 13.5C12.2652 13.5 12.5196 13.3946 12.7071 13.2071C12.8946 13.0196 13 12.7652 13 12.5C13 12.2348 12.8946 11.9804 12.7071 11.7929C12.5196 11.6054 12.2652 11.5 12 11.5Z" fill="#3680FF"/>
</svg>
