<svg width="20" height="20" viewBox="0 0 20 20" fill="none" xmlns="http://www.w3.org/2000/svg">
<path d="M4.429 0.25C4.62791 0.25 4.81868 0.329018 4.95933 0.46967C5.09998 0.610322 5.179 0.801088 5.179 1V3.762H7.857C7.95549 3.762 8.05302 3.7814 8.14401 3.81909C8.23501 3.85678 8.31769 3.91203 8.38733 3.98167C8.45697 4.05131 8.51222 4.13399 8.54991 4.22499C8.5876 4.31598 8.607 4.41351 8.607 4.512C8.607 4.61049 8.5876 4.70802 8.54991 4.79901C8.51222 4.89001 8.45697 4.97269 8.38733 5.04233C8.31769 5.11197 8.23501 5.16722 8.14401 5.20491C8.05302 5.2426 7.95549 5.262 7.857 5.262H5.18V8.024C5.18 8.22291 5.10098 8.41368 4.96033 8.55433C4.81968 8.69498 4.62891 8.774 4.43 8.774C4.23109 8.774 4.04032 8.69498 3.89967 8.55433C3.75902 8.41368 3.68 8.22291 3.68 8.024V5.262H1C0.801088 5.262 0.610322 5.18298 0.46967 5.04233C0.329018 4.90168 0.25 4.71091 0.25 4.512C0.25 4.31309 0.329018 4.12232 0.46967 3.98167C0.610322 3.84102 0.801088 3.762 1 3.762H3.679V1C3.679 0.801088 3.75802 0.610322 3.89867 0.46967C4.03932 0.329018 4.23009 0.25 4.429 0.25ZM12.25 2.317C12.25 2.11809 12.329 1.92732 12.4697 1.78667C12.6103 1.64602 12.8011 1.567 13 1.567H19C19.1989 1.567 19.3897 1.64602 19.5303 1.78667C19.671 1.92732 19.75 2.11809 19.75 2.317C19.75 2.51591 19.671 2.70668 19.5303 2.84733C19.3897 2.98798 19.1989 3.067 19 3.067H13C12.8011 3.067 12.6103 2.98798 12.4697 2.84733C12.329 2.70668 12.25 2.51591 12.25 2.317ZM12.25 6.707C12.25 6.50809 12.329 6.31732 12.4697 6.17667C12.6103 6.03602 12.8011 5.957 13 5.957H19C19.1989 5.957 19.3897 6.03602 19.5303 6.17667C19.671 6.31732 19.75 6.50809 19.75 6.707C19.75 6.90591 19.671 7.09668 19.5303 7.23733C19.3897 7.37798 19.1989 7.457 19 7.457H13C12.8011 7.457 12.6103 7.37798 12.4697 7.23733C12.329 7.09668 12.25 6.90591 12.25 6.707ZM13.076 13.496C13.2183 13.3573 13.4099 13.2807 13.6087 13.2831C13.8074 13.2856 13.9971 13.3668 14.136 13.509L16.025 15.443L17.912 13.509C17.9808 13.4385 18.0628 13.3822 18.1534 13.3434C18.244 13.3046 18.3413 13.284 18.4398 13.2828C18.5383 13.2816 18.6361 13.2998 18.7276 13.3364C18.8191 13.3729 18.9025 13.4272 18.973 13.496C19.0435 13.5648 19.0998 13.6468 19.1386 13.7374C19.1774 13.828 19.198 13.9253 19.1992 14.0238C19.2004 14.1223 19.1822 14.2201 19.1456 14.3116C19.1091 14.4031 19.0548 14.4865 18.986 14.557L17.073 16.517L18.986 18.476C19.0548 18.5465 19.1091 18.6299 19.1456 18.7214C19.1822 18.8129 19.2004 18.9107 19.1992 19.0092C19.198 19.1077 19.1774 19.205 19.1386 19.2956C19.0998 19.3862 19.0435 19.4682 18.973 19.537C18.9025 19.6058 18.8191 19.6601 18.7276 19.6966C18.6361 19.7332 18.5383 19.7514 18.4398 19.7502C18.3413 19.749 18.244 19.7284 18.1534 19.6896C18.0628 19.6508 17.9808 19.5945 17.912 19.524L16.025 17.59L14.137 19.524C14.0682 19.5945 13.9862 19.6508 13.8956 19.6896C13.805 19.7284 13.7077 19.749 13.6092 19.7502C13.5107 19.7514 13.4129 19.7332 13.3214 19.6966C13.2299 19.6601 13.1465 19.6058 13.076 19.537C13.0055 19.4682 12.9492 19.3862 12.9104 19.2956C12.8716 19.205 12.851 19.1077 12.8498 19.0092C12.8486 18.9107 12.8668 18.8129 12.9034 18.7214C12.9399 18.6299 12.9942 18.5465 13.063 18.476L14.977 16.516L13.063 14.556C12.9243 14.4137 12.8477 14.2221 12.8501 14.0233C12.8526 13.8246 12.9338 13.6349 13.076 13.496ZM0.68 16.366C0.68 16.1671 0.759018 15.9763 0.89967 15.8357C1.04032 15.695 1.23109 15.616 1.43 15.616H7.43C7.62891 15.616 7.81968 15.695 7.96033 15.8357C8.10098 15.9763 8.18 16.1671 8.18 16.366C8.18 16.5649 8.10098 16.7557 7.96033 16.8963C7.81968 17.037 7.62891 17.116 7.43 17.116H1.43C1.23109 17.116 1.04032 17.037 0.89967 16.8963C0.759018 16.7557 0.68 16.5649 0.68 16.366Z" fill="#3680FF" stroke="#3680FF" stroke-width="0.5"/>
</svg>
