<svg width="20" height="20" viewBox="0 0 20 20" fill="none" xmlns="http://www.w3.org/2000/svg">
<path fill-rule="evenodd" clip-rule="evenodd" d="M6 0C5.44772 0 5 0.447715 5 1V2C3.34315 2 2 3.34315 2 5V7V9V15C2 16.6569 3.34315 18 5 18H15C16.6569 18 18 16.6569 18 15V9V7V5C18 3.34315 16.6569 2 15 2V1C15 0.447715 14.5523 0 14 0C13.4477 0 13 0.447715 13 1V2H7V1C7 0.447715 6.55228 0 6 0ZM13 4H7C7 4.55228 6.55228 5 6 5C5.44772 5 5 4.55228 5 4C4.44772 4 4 4.44772 4 5V7L16 7V5C16 4.44772 15.5523 4 15 4C15 4.55228 14.5523 5 14 5C13.4477 5 13 4.55228 13 4ZM4 15V9L16 9V15C16 15.5523 15.5523 16 15 16H5C4.44772 16 4 15.5523 4 15Z" fill="#3680FF"/>
</svg>
