<svg width="20" height="14" viewBox="0 0 20 14" fill="none" xmlns="http://www.w3.org/2000/svg">
<path fill-rule="evenodd" clip-rule="evenodd" d="M12 1C12 0.447715 12.4477 0 13 0C13.5523 0 14 0.447715 14 1V5C14 5.55228 13.5523 6 13 6C12.4477 6 12 5.55228 12 5V4H1C0.447715 4 0 3.55228 0 3C0 2.44772 0.447715 2 1 2H12V1ZM19 10C19.5523 10 20 10.4477 20 11C20 11.5523 19.5523 12 19 12H8V13C8 13.5523 7.55228 14 7 14C6.44772 14 6 13.5523 6 13V9C6 8.44772 6.44772 8 7 8C7.55228 8 8 8.44772 8 9V10H19ZM16 2H19C19.5523 2 20 2.44772 20 3C20 3.55228 19.5523 4 19 4H16V2ZM1 10H4V12H1C0.447715 12 0 11.5523 0 11C0 10.4477 0.447715 10 1 10Z" fill="#040415"/>
</svg>
