<svg width="21" height="20" viewBox="0 0 21 20" fill="none" xmlns="http://www.w3.org/2000/svg">
<path fill-rule="evenodd" clip-rule="evenodd" d="M11.7279 0.688142C11.0056 0.126415 9.99431 0.126413 9.27209 0.688141L0.886032 7.21063L0.0966797 7.82457L1.32456 9.40328L2.11391 8.78934L10.5 2.26685L18.886 8.78934L19.6754 9.40328L20.9033 7.82457L20.1139 7.21063L11.7279 0.688142ZM2.49997 11V16C2.49997 18.2091 4.29083 20 6.49997 20H14.5C16.7091 20 18.5 18.2091 18.5 16V11H16.5V16C16.5 17.1046 15.6045 18 14.5 18H6.49997C5.3954 18 4.49997 17.1046 4.49997 16V11H2.49997Z" fill="#040415"/>
</svg>
