<svg width="22" height="22" viewBox="0 0 22 22" fill="none" xmlns="http://www.w3.org/2000/svg">
<path fill-rule="evenodd" clip-rule="evenodd" d="M1.5 9.56329C1.5 12.9622 3.46264 16.0361 5.30497 18.1104C6.25589 19.1811 7.25774 20.0802 8.13271 20.7274C8.56799 21.0494 9.00201 21.3314 9.40715 21.5431C9.71517 21.704 10.3226 22 10.9995 22C11.6764 22 12.2838 21.704 12.5918 21.5431C12.997 21.3315 13.4311 21.0495 13.8664 20.7275C14.7414 20.0803 15.7434 19.1812 16.6945 18.1105C18.537 16.0362 20.5 12.9623 20.5 9.56329C20.5 4.2979 16.2623 0 10.9995 0C5.73643 0 1.5 4.29824 1.5 9.56329ZM10.9995 20C9.80103 20 3.5 14.8984 3.5 9.56329C3.5 5.38664 6.8571 2 10.9995 2C15.1419 2 18.5 5.38664 18.5 9.56329C18.5 14.8984 12.198 20 10.9995 20ZM15.5 9.50051C15.5 7.0152 13.4859 5 11.0005 5C8.51467 5 6.5 7.01467 6.5 9.50051C6.5 11.9859 8.5152 14 11.0005 14C13.4853 14 15.5 11.9853 15.5 9.50051ZM13.5 9.50051C13.5 8.11924 12.3808 7 11.0005 7C9.61924 7 8.5 8.11924 8.5 9.50051C8.5 10.8808 9.61924 12 11.0005 12C12.3808 12 13.5 10.8808 13.5 9.50051Z" fill="#040415"/>
</svg>
