<svg width="25" height="24" viewBox="0 0 25 24" fill="none" xmlns="http://www.w3.org/2000/svg">
<path fill-rule="evenodd" clip-rule="evenodd" d="M2.5 6C2.5 3.79086 4.29086 2 6.5 2H9.5V4H6.5C5.39543 4 4.5 4.89543 4.5 6V9H2.5V6ZM2.5 18C2.5 20.2091 4.29086 22 6.5 22H9.5V20H6.5C5.39543 20 4.5 19.1046 4.5 18V15H2.5V18ZM18.5 2C20.7091 2 22.5 3.79086 22.5 6V9H20.5V6C20.5 4.89543 19.6046 4 18.5 4H15.5V2H18.5ZM22.5 18C22.5 20.2091 20.7091 22 18.5 22H15.5V20H18.5C19.6046 20 20.5 19.1046 20.5 18V15H22.5V18ZM22.5 11H2.5V13H22.5V11Z" fill="#040415"/>
</svg>
