<svg width="21" height="20" viewBox="0 0 21 20" fill="none" xmlns="http://www.w3.org/2000/svg">
<path fill-rule="evenodd" clip-rule="evenodd" d="M4.5 0C2.29086 0 0.5 1.79086 0.5 4V16C0.5 18.2091 2.29086 20 4.5 20H16.5C18.7091 20 20.5 18.2091 20.5 16V4C20.5 1.79086 18.7091 0 16.5 0H4.5ZM2.5 4C2.5 2.89543 3.39543 2 4.5 2H16.5C17.6046 2 18.5 2.89543 18.5 4V16C18.5 17.1046 17.6046 18 16.5 18H4.5C3.39543 18 2.5 17.1046 2.5 16V4ZM7.5 5V4H5.5V5C5.5 7.76142 7.73858 10 10.5 10C13.2614 10 15.5 7.76142 15.5 5V4H13.5V5C13.5 6.65685 12.1569 8 10.5 8C8.84315 8 7.5 6.65685 7.5 5Z" fill="#040415"/>
</svg>
