<svg width="66" height="66" viewBox="0 0 66 66" fill="none" xmlns="http://www.w3.org/2000/svg">
<g opacity="0.07">
<path d="M65 33C65 50.6731 50.6731 65 33 65C15.3269 65 1 50.6731 1 33C1 15.3269 15.3269 1 33 1C50.6731 1 65 15.3269 65 33Z" fill="#040415"/>
<path d="M33 65.5C50.9493 65.5 65.5 50.9493 65.5 33C65.5 15.0507 50.9493 0.5 33 0.5C15.0507 0.5 0.5 15.0507 0.5 33C0.5 50.9493 15.0507 65.5 33 65.5Z" stroke="white" stroke-opacity="0.3"/>
</g>
<g clip-path="url(#clip0_1_2398)">
<path d="M29.8695 25.143L23.6255 37.6309C22.2595 40.363 24.8037 43.4114 27.736 42.5562L32.3 41.225C32.7571 41.0917 33.2429 41.0917 33.7 41.225L38.264 42.5562C41.1963 43.4114 43.7405 40.363 42.3745 37.6309L36.1305 25.143C34.8407 22.5633 31.1593 22.5633 29.8695 25.143Z" fill="#4059E6" stroke="white"/>
</g>
<defs>
<clipPath id="clip0_1_2398">
<rect width="24" height="24" fill="white" transform="translate(21 21)"/>
</clipPath>
</defs>
</svg>
