<svg width="14" height="13" viewBox="0 0 14 13" fill="none" xmlns="http://www.w3.org/2000/svg">
<path d="M10.7508 7.5C10.7508 7.69778 10.6922 7.89112 10.5823 8.05557C10.4724 8.22002 10.3162 8.34819 10.1335 8.42388C9.95078 8.49957 9.74972 8.51937 9.55574 8.48079C9.36176 8.4422 9.18357 8.34696 9.04372 8.20711C8.90387 8.06725 8.80863 7.88907 8.77004 7.69509C8.73146 7.50111 8.75126 7.30004 8.82695 7.11732C8.90263 6.93459 9.03081 6.77841 9.19526 6.66853C9.3597 6.55865 9.55305 6.5 9.75083 6.5C10.016 6.5 10.2704 6.60536 10.4579 6.79289C10.6455 6.98043 10.7508 7.23478 10.7508 7.5ZM13.2508 5.25V10.25C13.2508 10.7804 13.0401 11.2891 12.665 11.6642C12.29 12.0393 11.7813 12.25 11.2508 12.25H2.25083C1.72039 12.25 1.21169 12.0393 0.836613 11.6642C0.46154 11.2891 0.250827 10.7804 0.250827 10.25V2.8075C0.243135 2.54006 0.289182 2.27379 0.386241 2.02446C0.483301 1.77514 0.6294 1.54782 0.815889 1.35597C1.00238 1.16412 1.22547 1.01164 1.47194 0.907549C1.71842 0.803463 1.98327 0.74989 2.25083 0.75H10.5008C10.6997 0.75 10.8905 0.829018 11.0312 0.96967C11.1718 1.11032 11.2508 1.30109 11.2508 1.5C11.2508 1.69891 11.1718 1.88968 11.0312 2.03033C10.8905 2.17098 10.6997 2.25 10.5008 2.25H2.25083C2.18378 2.24996 2.1174 2.26342 2.05566 2.28955C1.99391 2.31569 1.93805 2.35398 1.8914 2.40214C1.84475 2.45031 1.80827 2.50736 1.78412 2.56991C1.75997 2.63247 1.74865 2.69923 1.75083 2.76625V2.77125C1.76133 2.90364 1.82208 3.02699 1.92063 3.11601C2.01918 3.20503 2.14806 3.25297 2.28083 3.25H11.2508C11.7813 3.25 12.29 3.46071 12.665 3.83579C13.0401 4.21086 13.2508 4.71957 13.2508 5.25ZM11.7508 5.25C11.7508 5.11739 11.6981 4.99021 11.6044 4.89645C11.5106 4.80268 11.3834 4.75 11.2508 4.75H2.28083C2.10201 4.75009 1.92391 4.72741 1.75083 4.6825V10.25C1.75083 10.3826 1.80351 10.5098 1.89727 10.6036C1.99104 10.6973 2.11822 10.75 2.25083 10.75H11.2508C11.3834 10.75 11.5106 10.6973 11.6044 10.6036C11.6981 10.5098 11.7508 10.3826 11.7508 10.25V5.25Z" fill="white"/>
</svg>
