<svg width="24" height="24" viewBox="0 0 24 24" fill="none" xmlns="http://www.w3.org/2000/svg">
<path d="M4.4211 21.0001C3.90005 21.0001 3.45416 20.8148 3.08342 20.444C2.71268 20.0733 2.527 19.6271 2.52637 19.1054V8.68433C2.52637 8.16328 2.71205 7.71738 3.08342 7.34665C3.45479 6.97591 3.90068 6.79023 4.4211 6.7896H8.21058V4.89486C8.21058 4.37381 8.39626 3.92791 8.76763 3.55717C9.139 3.18644 9.58489 3.00075 10.1053 3.00012H13.8948C14.4158 3.00012 14.8621 3.18581 15.2334 3.55717C15.6048 3.92854 15.7902 4.37444 15.7895 4.89486V6.7896H19.579C20.1001 6.7896 20.5463 6.97528 20.9176 7.34665C21.289 7.71802 21.4744 8.16391 21.4737 8.68433V19.1054C21.4737 19.6264 21.2884 20.0726 20.9176 20.444C20.5469 20.8154 20.1007 21.0008 19.579 21.0001H4.4211ZM4.4211 19.1054H19.579V8.68433H4.4211V19.1054ZM10.1053 6.7896H13.8948V4.89486H10.1053V6.7896Z" fill="#3680FF"/>
</svg>
